<svg width="104" height="60" viewBox="0 0 104 60" fill="none" xmlns="http://www.w3.org/2000/svg">
<path d="M54.4502 14.5601C54.7342 14.5601 54.9649 14.7908 54.9649 15.0748C54.9649 15.3588 54.7342 15.5895 54.4502 15.5895C54.1663 15.5895 53.9355 15.3588 53.9355 15.0748C53.9355 14.7908 54.1663 14.5601 54.4502 14.5601ZM60.5925 8.77094C59.0116 9.84726 57.482 11.0003 56.0387 12.2534C55.5608 12.6616 55.1576 13.1485 54.7944 13.6606C54.4236 13.4508 54.0731 13.1415 53.6325 13.1073C53.1115 13.1592 52.6551 13.6213 52.6424 14.1512C52.6887 14.7889 53.1026 15.3062 53.4804 15.7898C53.1242 16.5511 52.6551 17.2598 52.0244 17.822C51.376 17.2743 50.9088 16.5581 50.5488 15.7949C50.8891 15.36 51.2631 14.9087 51.3544 14.3465C51.5065 13.7088 50.8904 13.0483 50.2515 13.1199C49.8826 13.2309 49.5713 13.4654 49.2436 13.6575C48.0114 11.9815 46.2334 10.8304 44.6024 9.5804C42.5899 8.21757 40.6686 6.72607 38.8114 5.15597C36.7899 3.54277 34.8237 1.8592 32.8789 0.154721C32.5493 -0.205318 32.1341 0.178176 31.9085 0.45708C31.4033 1.15878 30.8556 1.82878 30.3219 2.51083C30.1482 2.74346 29.9479 3.1092 30.2021 3.36338C30.7694 3.99726 31.4432 4.52527 32.0822 5.08434C34.5194 7.20972 37.0885 9.17409 39.6367 11.1632C40.3441 11.6284 41.1998 12.3003 42.0878 11.9441C42.6247 11.7039 43.0348 10.6548 43.701 11.1828C45.1818 12.3644 46.4818 13.7544 47.9271 14.9772C47.6475 15.2098 47.3699 15.4462 47.0929 15.6808C47.6425 16.3685 48.3251 16.9358 48.8994 17.602C49.2037 17.3117 49.4921 17.0075 49.7875 16.7102C50.3212 17.235 50.8619 17.7561 51.433 18.241C50.6261 18.6631 50.3275 18.4159 50.0062 19.2076C50.7383 19.3851 51.433 19.0606 52.0168 18.6492C52.6044 19.0631 53.2991 19.3851 54.0363 19.2064C53.9343 18.4863 53.0602 18.5903 52.5841 18.2359C53.1787 17.7668 53.7086 17.2262 54.2639 16.7121C54.5434 17.0163 54.828 17.3193 55.1272 17.6071C55.7021 16.9517 56.336 16.3501 56.9338 15.7163C56.6631 15.4583 56.3893 15.206 56.1173 14.9499C57.5676 13.7183 58.9178 12.377 60.3446 11.1201C60.583 11.0522 60.8302 11.0396 61.0717 11.1074C61.4349 11.5765 61.9115 12.1457 62.579 12.0455C63.2592 11.9504 63.8487 11.5384 64.4039 11.1575C67.489 8.76714 70.5759 6.3711 73.4664 3.74434C73.6959 3.50473 74.0534 3.2626 73.912 2.87974C73.5469 2.18311 72.9612 1.62974 72.5188 0.983192C72.2341 0.628858 71.9958 0.150919 71.5306 0.0165378C71.2833 -0.0709365 71.1401 0.211771 70.9594 0.322699C69.6182 1.49536 68.2648 2.65408 66.8982 3.79822C64.8071 5.46911 62.7888 7.23634 60.5918 8.77094H60.5925ZM60.8162 10.4165C60.8092 9.94044 61.0095 9.49102 61.4038 9.21339C64.5947 6.61515 67.7837 4.00993 70.9689 1.40282C71.3201 1.06433 71.8323 1.14863 72.2779 1.14293C71.8266 1.23928 71.3429 1.30203 70.9975 1.63735C67.8211 4.25334 64.6283 6.84778 61.4393 9.44792C61.1027 9.67548 60.9576 10.0533 60.8162 10.4165ZM33.0621 1.40092C36.2461 4.0169 39.4471 6.61324 42.6399 9.22036C43.0266 9.50687 43.2041 9.97403 43.2592 10.4399C43.0482 10.0051 42.8028 9.57659 42.4105 9.27931C39.2481 6.71339 36.0971 4.13481 32.9474 1.55621C32.6267 1.24308 32.1665 1.23738 31.7551 1.1537C32.1994 1.12835 32.7097 1.06053 33.0621 1.40092ZM49.5587 14.5601C49.8433 14.5601 50.0734 14.7908 50.0734 15.0748C50.0734 15.3588 49.8426 15.5895 49.5587 15.5895C49.2747 15.5895 49.0439 15.3588 49.0439 15.0748C49.0439 14.7908 49.2747 14.5601 49.5587 14.5601Z" fill="white"/>
<path d="M28.2219 31.042C29.7615 31.248 31.144 30.3847 32.4618 29.7223C31.8603 28.7537 31.2695 27.7794 30.6768 26.8052C29.9054 27.169 29.1492 27.5646 28.3759 27.9246C27.697 28.2631 26.9433 28.7448 26.7963 29.5505C26.757 30.3276 27.4498 31.0242 28.2219 31.042ZM28.8037 28.9407C29.1593 28.9407 29.4471 29.2139 29.4471 29.5505C29.4471 29.8871 29.1593 30.1603 28.8037 30.1603C28.4481 30.1603 28.1604 29.8871 28.1604 29.5505C28.1604 29.2139 28.4488 28.9407 28.8037 28.9407Z" fill="white"/>
<path d="M41.5255 20.3004C43.1856 19.0884 44.7272 17.7275 46.2973 16.4059C46.9242 17.0379 47.5042 17.7129 48.1076 18.3684C46.1597 20.1628 44.1757 21.9193 42.082 23.5433C39.3336 25.6148 36.4634 27.5348 33.4462 29.1962C32.8998 28.2111 32.2767 27.273 31.6859 26.3171C35.1133 24.5695 38.4132 22.5639 41.5255 20.3004Z" fill="white"/>
<path d="M55.8561 18.3537C56.4418 17.6736 57.0826 17.0429 57.6607 16.3539C62.042 20.3416 67.0293 23.6307 72.3133 26.2987C71.7029 27.2495 71.1153 28.2162 70.5156 29.1727C67.3032 27.3858 64.2359 25.3409 61.3264 23.0938C59.4463 21.5808 57.6322 19.9872 55.8561 18.3544V18.3537Z" fill="white"/>
<path d="M46.4253 16.2949L46.9622 15.8474L48.7973 17.7833L48.2376 18.2758L46.4247 16.2949H46.4253Z" fill="white"/>
<path d="M57.572 16.2722L57.0345 15.8247L55.1995 17.7606L55.7592 18.2531L57.572 16.2722Z" fill="white"/>
<path d="M30.8809 26.7252L31.5299 26.4121L33.1977 29.3108L32.6265 29.6353L30.8809 26.7259V26.7252Z" fill="white"/>
<path d="M73.1278 26.7024L72.4787 26.3893L70.811 29.288L71.3815 29.6125L73.1272 26.703L73.1278 26.7024Z" fill="white"/>
<path d="M12.2799 38.0894H8.27259V49.0769H4.30265V38.0894H0.295307L0.0316162 37.8257V34.4769H12.543V37.8257L12.2793 38.0894H12.2799ZM23.3055 49.0769V43.5641H18.1318V49.0769H14.0865V34.4769H18.1318V40.0461H23.3055V34.4769H27.3883V49.0769H23.3055ZM29.6271 49.0769V34.4769H41.2732V37.9575H33.4278V40.0461H40.8219V43.5267H33.4278V45.6153H41.2732V49.0769H29.6271ZM57.3406 49.0769H49.0622V34.4769H56.701C56.9768 34.4769 57.2626 34.5112 57.5574 34.5802C57.8521 34.6493 58.1406 34.7495 58.4226 34.8813C58.7047 35.0132 58.9684 35.1666 59.2131 35.3422C59.4577 35.5177 59.6676 35.7123 59.8431 35.9253C60.1569 36.3018 60.3984 36.7221 60.5676 37.1861C60.7369 37.6501 60.8218 38.1268 60.8218 38.6161C60.8218 39.1809 60.709 39.7229 60.4833 40.2439C60.2577 40.7643 59.9313 41.2194 59.5053 41.608C59.781 41.7836 60.0352 41.9966 60.2672 42.2476C60.4992 42.4986 60.697 42.7743 60.8599 43.0754C61.0228 43.3765 61.1515 43.6934 61.2453 44.0256C61.3391 44.3577 61.3866 44.681 61.3866 44.9948C61.3866 45.5469 61.2833 46.0704 61.076 46.5655C60.8694 47.0612 60.5803 47.4935 60.2108 47.8637C59.8406 48.2339 59.4115 48.5286 58.9221 48.7479C58.4328 48.9672 57.906 49.0769 57.3419 49.0769H57.3406ZM55.5157 37.4118H52.9003V40.3846H55.5157C55.9169 40.3846 56.2649 40.2376 56.5597 39.9422C56.8544 39.6468 57.0021 39.2994 57.0021 38.8982C57.0021 38.4969 56.8544 38.1489 56.5597 37.8542C56.2649 37.5594 55.9169 37.4118 55.5157 37.4118ZM55.6475 43.0374H52.901V45.9912H55.6475C56.0615 45.9912 56.4126 45.8467 56.701 45.5583C56.9894 45.2699 57.134 44.9187 57.134 44.5048C57.134 44.0909 56.9894 43.7587 56.701 43.4703C56.4126 43.1819 56.0615 43.0374 55.6475 43.0374ZM69.9654 49.5282C68.8866 49.5282 67.8768 49.3273 66.9362 48.926C65.9955 48.5248 65.174 47.9759 64.4717 47.2799C63.7693 46.5839 63.2141 45.7655 62.8065 44.8249C62.3989 43.8842 62.1948 42.8808 62.1948 41.8146C62.1948 40.7485 62.3989 39.745 62.8065 38.8044C63.2141 37.8637 63.7693 37.0454 64.4717 36.3494C65.174 35.6534 65.9955 35.1013 66.9362 34.6937C67.8768 34.2861 68.8866 34.082 69.9654 34.082C71.0443 34.082 72.0382 34.2861 72.9852 34.6937C73.9322 35.1013 74.7569 35.6534 75.4592 36.3494C76.1615 37.0454 76.7168 37.8637 77.1244 38.8044C77.532 39.745 77.7361 40.7485 77.7361 41.8146C77.7361 42.8808 77.532 43.8842 77.1244 44.8249C76.7168 45.7655 76.1615 46.5839 75.4592 47.2799C74.7569 47.9759 73.9322 48.5248 72.9852 48.926C72.0382 49.3273 71.0316 49.5282 69.9654 49.5282ZM69.9654 37.8067C69.4133 37.8067 68.9024 37.9163 68.4321 38.1356C67.9618 38.355 67.5574 38.6465 67.2189 39.0104C66.8804 39.3742 66.6135 39.7976 66.4196 40.28C66.225 40.763 66.128 41.2739 66.128 41.8134C66.128 42.3528 66.225 42.8485 66.4196 43.3372C66.6142 43.8265 66.8804 44.2525 67.2189 44.6163C67.5574 44.9802 67.9618 45.2718 68.4321 45.4911C68.9024 45.7104 69.4133 45.8201 69.9654 45.8201C70.5175 45.8201 71.0284 45.7104 71.4988 45.4911C71.9691 45.2718 72.3735 44.9802 72.712 44.6163C73.0505 44.2525 73.3174 43.8259 73.5113 43.3372C73.7059 42.8478 73.8029 42.3401 73.8029 41.8134C73.8029 41.2866 73.7059 40.763 73.5113 40.28C73.3167 39.797 73.0505 39.3736 72.712 39.0104C72.3735 38.6465 71.9691 38.355 71.4988 38.1356C71.0284 37.9163 70.5175 37.8067 69.9654 37.8067ZM84.6218 49.5282C83.6438 49.5282 82.6746 49.4122 81.7149 49.1834C80.7552 48.9514 79.8367 48.6313 78.9588 48.2174C78.9335 48.2174 78.8707 48.192 78.7705 48.1419C78.6704 48.0824 78.6203 48.0386 78.6203 48.0133C78.6203 48.0006 78.6457 47.9505 78.6958 47.863C78.7458 47.7749 78.8086 47.6653 78.884 47.5366C78.9594 47.4047 79.0469 47.2545 79.1471 47.0853C79.2472 46.9192 79.348 46.7468 79.4482 46.5712C79.6611 46.2232 79.8621 45.8904 80.0503 45.5773C80.2386 45.2635 80.3705 45.0379 80.4453 44.8997C80.6082 44.9624 80.7654 45.0379 80.9156 45.1253C81.5932 45.4638 82.2733 45.7244 82.9573 45.9063C83.6406 46.0882 84.3651 46.1788 85.1302 46.1788C85.3432 46.1788 85.5726 46.1693 85.8167 46.1503C86.0614 46.1313 86.2838 46.0844 86.4848 46.009C86.6857 45.9335 86.8518 45.8175 86.9836 45.661C87.1155 45.5044 87.1814 45.2813 87.1814 44.9897C87.1814 44.8515 87.144 44.7292 87.0686 44.6227C86.9931 44.5162 86.8993 44.4217 86.7865 44.3406C86.6737 44.2588 86.5545 44.1872 86.429 44.1245C86.3035 44.0617 86.1843 44.0116 86.0715 43.9742C85.8078 43.8741 85.5384 43.7986 85.2627 43.7486C84.9869 43.6985 84.7106 43.6421 84.4348 43.5793C84.071 43.4912 83.7135 43.4101 83.3623 43.3347C83.0112 43.2592 82.6727 43.1686 82.3462 43.0678C82.0077 42.9676 81.6845 42.858 81.377 42.7388C81.0696 42.6196 80.7844 42.4783 80.5207 42.3154C79.9813 41.9896 79.5515 41.5535 79.232 41.0045C78.9119 40.4588 78.7522 39.7349 78.7522 38.8285C78.7522 38.5147 78.7864 38.1984 78.8555 37.8783C78.9246 37.5582 79.0279 37.2546 79.1661 36.963C79.4418 36.3862 79.7993 35.9095 80.2386 35.533C80.6779 35.1564 81.1634 34.8585 81.6965 34.6455C82.2296 34.4326 82.7906 34.2817 83.3801 34.1942C83.9696 34.1061 84.5591 34.0624 85.1486 34.0624C86.1146 34.0624 87.0673 34.1784 88.0086 34.4135C88.9493 34.6455 89.8462 35.0284 90.6994 35.5583C90.3856 36.0882 90.0814 36.6055 89.7866 37.117C89.4919 37.6279 89.194 38.1458 88.8929 38.6725C88.1652 38.3214 87.4597 38.0329 86.7764 37.8073C86.093 37.5816 85.3559 37.4688 84.5654 37.4688C84.3772 37.4688 84.1794 37.4783 83.9727 37.4973C83.7661 37.5163 83.5747 37.5632 83.3991 37.6387C83.2235 37.7141 83.079 37.8238 82.9662 37.9677C82.8533 38.1122 82.7969 38.303 82.7969 38.5381C82.7969 38.7137 82.8343 38.864 82.9097 38.9895C82.9978 39.1276 83.1576 39.25 83.3896 39.3565C83.6216 39.463 83.9068 39.5599 84.2459 39.6481C84.5844 39.7355 84.9546 39.8205 85.3559 39.9022C85.7571 39.984 86.1773 40.081 86.6166 40.1938C87.0432 40.3066 87.473 40.4353 87.9053 40.5767C88.3382 40.7212 88.7458 40.8968 89.128 41.1034C89.5109 41.3101 89.8525 41.5547 90.1536 41.8375C90.4547 42.1195 90.6931 42.4555 90.8686 42.8409C91.0068 43.1293 91.1006 43.4399 91.1507 43.772C91.2008 44.1042 91.2261 44.4338 91.2261 44.7564C91.2261 45.7098 91.0315 46.4939 90.643 47.1049C90.2544 47.7198 89.746 48.2053 89.1191 48.5597C88.4922 48.9172 87.7836 49.1682 86.9931 49.3121C86.2027 49.4566 85.4129 49.5282 84.6225 49.5282H84.6218ZM97.3969 49.5282C96.4188 49.5282 95.4496 49.4122 94.4899 49.1834C93.5303 48.9514 92.6118 48.6313 91.7339 48.2174C91.7085 48.2174 91.6464 48.192 91.5456 48.1419C91.4455 48.0824 91.3948 48.0386 91.3948 48.0133C91.3948 48.0006 91.4201 47.9505 91.4702 47.863C91.5203 47.7749 91.583 47.6653 91.6584 47.5366C91.7339 47.4047 91.8213 47.2545 91.9215 47.0853C92.0216 46.9192 92.1224 46.7468 92.2226 46.5712C92.4356 46.2232 92.6365 45.8904 92.8248 45.5773C93.013 45.2635 93.1449 45.0379 93.2197 44.8997C93.3826 44.9624 93.5398 45.0379 93.69 45.1253C94.3676 45.4638 95.0478 45.7244 95.7311 45.9063C96.4144 46.0882 97.1389 46.1788 97.904 46.1788C98.117 46.1788 98.3458 46.1693 98.5905 46.1503C98.8351 46.1313 99.0576 46.0844 99.2586 46.009C99.4595 45.9335 99.6256 45.8175 99.7574 45.661C99.8893 45.5044 99.9552 45.2813 99.9552 44.9897C99.9552 44.8515 99.9178 44.7292 99.8424 44.6227C99.7669 44.5162 99.6731 44.4217 99.5603 44.3406C99.4474 44.2588 99.3283 44.1872 99.2028 44.1245C99.0773 44.0617 98.9581 44.0116 98.8453 43.9742C98.5816 43.8741 98.3122 43.7986 98.0365 43.7486C97.7607 43.6985 97.4844 43.6421 97.2086 43.5793C96.8448 43.4912 96.4873 43.4101 96.1361 43.3347C95.7849 43.2592 95.4465 43.1686 95.12 43.0678C94.7815 42.9676 94.4583 42.858 94.1508 42.7388C93.8434 42.6196 93.5582 42.4783 93.2945 42.3154C92.755 41.9896 92.3253 41.5535 92.0058 41.0045C91.6857 40.4588 91.526 39.7349 91.526 38.8285C91.526 38.5147 91.5602 38.1984 91.6293 37.8783C91.6984 37.5582 91.8017 37.2546 91.9399 36.963C92.2156 36.3862 92.5731 35.9095 93.0124 35.533C93.4517 35.1564 93.9372 34.8585 94.4703 34.6455C95.0034 34.4326 95.5644 34.2817 96.1545 34.1942C96.744 34.1061 97.3335 34.0624 97.923 34.0624C98.889 34.0624 99.8424 34.1784 100.783 34.4135C101.724 34.6455 102.621 35.0284 103.473 35.5583C103.159 36.0882 102.855 36.6055 102.56 37.117C102.266 37.6279 101.968 38.1458 101.667 38.6725C100.939 38.3214 100.233 38.0329 99.5501 37.8073C98.8668 37.5816 98.1296 37.4688 97.3392 37.4688C97.1509 37.4688 96.9532 37.4783 96.7465 37.4973C96.5399 37.5163 96.3485 37.5632 96.1729 37.6387C95.9973 37.7141 95.8528 37.8238 95.7399 37.9677C95.6271 38.1122 95.5707 38.303 95.5707 38.5381C95.5707 38.7137 95.6081 38.864 95.6835 38.9895C95.771 39.1276 95.9314 39.25 96.1634 39.3565C96.3954 39.463 96.6806 39.5599 97.0197 39.6481C97.3582 39.7355 97.7284 39.8205 98.1296 39.9022C98.5309 39.984 98.9511 40.081 99.3904 40.1938C99.817 40.3066 100.247 40.4353 100.679 40.5767C101.112 40.7212 101.52 40.8968 101.902 41.1034C102.285 41.3101 102.626 41.5547 102.927 41.8375C103.229 42.1195 103.467 42.4555 103.642 42.8409C103.781 43.1293 103.874 43.4399 103.924 43.772C103.975 44.1042 104 44.4338 104 44.7564C104 45.7098 103.805 46.4939 103.417 47.1049C103.028 47.7198 102.52 48.2053 101.893 48.5597C101.266 48.9172 100.557 49.1682 99.7669 49.3121C98.9765 49.4566 98.1867 49.5282 97.3962 49.5282H97.3969Z" fill="white"/>
<path d="M0 55.4474H17.5646V57.3725H0V55.4474Z" fill="white"/>
<path d="M23.561 59.6049H20.038V53.3911H23.2891C23.4064 53.3911 23.5281 53.4056 23.6536 53.4348C23.7791 53.464 23.9021 53.5071 24.0219 53.5628C24.1423 53.6186 24.2538 53.6845 24.3584 53.7587C24.4624 53.8335 24.5518 53.9159 24.6266 54.0072C24.7603 54.1676 24.863 54.3463 24.9346 54.5434C25.0069 54.7412 25.0424 54.944 25.0424 55.152C25.0424 55.3922 24.9942 55.6229 24.8985 55.8448C24.8021 56.0666 24.6633 56.26 24.482 56.4254C24.5993 56.5002 24.7077 56.5908 24.8066 56.698C24.9055 56.8045 24.9891 56.9224 25.0589 57.0504C25.1286 57.1784 25.1831 57.3135 25.223 57.4548C25.263 57.5962 25.2833 57.7337 25.2833 57.8675C25.2833 58.1026 25.2395 58.3251 25.1514 58.5362C25.0633 58.7473 24.9403 58.9311 24.7831 59.0889C24.6259 59.2461 24.4427 59.3716 24.2348 59.4655C24.0269 59.5586 23.8025 59.6055 23.5623 59.6055L23.561 59.6049ZM22.7845 54.6404H21.6715V55.9056H22.7845C22.9557 55.9056 23.1034 55.8429 23.2289 55.7174C23.3544 55.5919 23.4171 55.4435 23.4171 55.273C23.4171 55.1025 23.3544 54.9542 23.2289 54.8287C23.1034 54.7032 22.955 54.6404 22.7845 54.6404ZM22.8403 57.0346H21.6715V58.2915H22.8403C23.0165 58.2915 23.1661 58.23 23.2885 58.1071C23.4114 57.9841 23.4729 57.8351 23.4729 57.6589C23.4729 57.4827 23.4114 57.3413 23.2885 57.2184C23.1655 57.0954 23.0165 57.0339 22.8403 57.0339V57.0346ZM29.6868 59.6049L29.3667 58.7479H27.453L27.1329 59.6049H25.379L27.6774 53.3911H29.1429L31.4413 59.6049H29.6874H29.6868ZM28.4133 55.6571L27.917 57.2989H28.902L28.4133 55.6571ZM36.0445 59.6049L34.9637 57.683H33.9147L33.9229 59.6049H32.2096V53.3911H35.3244C35.474 53.3911 35.6261 53.4189 35.7808 53.4754C35.9355 53.5311 36.0851 53.6059 36.229 53.6997C36.3728 53.7929 36.5066 53.8988 36.6296 54.0161C36.7525 54.1333 36.8565 54.2538 36.9421 54.3761C37.0486 54.5308 37.1303 54.7108 37.1861 54.9168C37.2419 55.1222 37.2704 55.3187 37.2704 55.505C37.2704 55.815 37.1981 56.1028 37.0543 56.3696C36.9104 56.6365 36.7101 56.8609 36.4534 57.0422L37.9106 59.6049H36.0451H36.0445ZM34.8351 54.7761H33.8659V56.1135H34.8351C34.9314 56.1135 35.0221 56.0964 35.107 56.0616C35.1926 56.0267 35.2674 55.9804 35.3314 55.9189C35.3954 55.8575 35.4461 55.7871 35.4835 55.7079C35.5209 55.628 35.5393 55.5411 35.5393 55.4448C35.5393 55.3485 35.5209 55.2622 35.4835 55.1817C35.4461 55.1031 35.3954 55.0322 35.3314 54.9707C35.2674 54.9092 35.1926 54.8629 35.107 54.828C35.0214 54.7932 34.9308 54.7761 34.8351 54.7761ZM42.0663 59.6049H38.5432V53.3911H41.7944C41.9116 53.3911 42.0333 53.4056 42.1588 53.4348C42.2843 53.464 42.4073 53.5071 42.5271 53.5628C42.6475 53.6186 42.7591 53.6845 42.8637 53.7587C42.9677 53.8335 43.057 53.9159 43.1318 54.0072C43.2656 54.1676 43.3683 54.3463 43.4399 54.5434C43.5121 54.7412 43.5483 54.944 43.5483 55.152C43.5483 55.3922 43.5001 55.6229 43.4044 55.8448C43.308 56.0666 43.1699 56.26 42.9879 56.4254C43.1052 56.5002 43.2136 56.5908 43.3125 56.698C43.4114 56.8045 43.495 56.9224 43.5648 57.0504C43.6339 57.1784 43.689 57.3135 43.7289 57.4548C43.7689 57.5962 43.7891 57.7337 43.7891 57.8675C43.7891 58.1026 43.7454 58.3251 43.6573 58.5362C43.5692 58.7473 43.4462 58.9311 43.289 59.0889C43.1318 59.2461 42.9486 59.3716 42.7407 59.4655C42.5328 59.5586 42.3084 59.6055 42.0682 59.6055L42.0663 59.6049ZM41.2898 54.6404H40.1767V55.9056H41.2898C41.4603 55.9056 41.6086 55.8429 41.7341 55.7174C41.8596 55.5919 41.9224 55.4435 41.9224 55.273C41.9224 55.1025 41.8596 54.9542 41.7341 54.8287C41.6086 54.7032 41.4603 54.6404 41.2898 54.6404ZM41.3456 57.0346H40.1767V58.2915H41.3456C41.5218 58.2915 41.6714 58.23 41.7937 58.1071C41.9167 57.9841 41.9782 57.8351 41.9782 57.6589C41.9782 57.4827 41.9167 57.3413 41.7937 57.2184C41.6707 57.0954 41.5218 57.0339 41.3456 57.0339V57.0346ZM44.6449 59.6049V53.3911H49.6018V54.8724H46.2625V55.7611H49.4097V57.2425H46.2625V58.1311H49.6018V59.6043H44.6449V59.6049ZM54.3342 59.6049L53.2535 57.683H52.2044L52.2127 59.6049H50.4993V53.3911H53.6142C53.7638 53.3911 53.9159 53.4189 54.0705 53.4754C54.2252 53.5311 54.3748 53.6059 54.5187 53.6997C54.6626 53.7929 54.7963 53.8988 54.9193 54.0161C55.0423 54.1333 55.1462 54.2538 55.2318 54.3761C55.3383 54.5308 55.4201 54.7108 55.4758 54.9168C55.5316 55.1222 55.5602 55.3187 55.5602 55.505C55.5602 55.815 55.4879 56.1028 55.344 56.3696C55.2001 56.6365 54.9998 56.8609 54.7431 57.0422L56.2004 59.6049H54.3349H54.3342ZM53.1248 54.7761H52.1556V56.1135H53.1248C53.2212 56.1135 53.3118 56.0964 53.3967 56.0616C53.4823 56.0267 53.5571 55.9804 53.6211 55.9189C53.6852 55.8575 53.7359 55.7871 53.7733 55.7079C53.8107 55.628 53.829 55.5411 53.829 55.4448C53.829 55.3485 53.8107 55.2622 53.7733 55.1817C53.7359 55.1031 53.6852 55.0322 53.6211 54.9707C53.5571 54.9092 53.4823 54.8629 53.3967 54.828C53.3112 54.7932 53.2205 54.7761 53.1248 54.7761ZM61.9014 59.797C61.485 59.797 61.0723 59.7475 60.6641 59.6499C60.2559 59.551 59.8648 59.4147 59.4908 59.2392C59.48 59.2392 59.4534 59.2284 59.4109 59.2068C59.3685 59.1815 59.3469 59.1631 59.3469 59.1523C59.3469 59.1472 59.3577 59.1257 59.3792 59.0883C59.4008 59.0509 59.4274 59.004 59.4591 58.9495C59.4914 58.8937 59.5288 58.8297 59.5713 58.7574C59.6138 58.6864 59.6569 58.6135 59.6993 58.5387C59.79 58.3904 59.8756 58.2491 59.9554 58.1159C60.0353 57.9822 60.0917 57.8865 60.1234 57.8275C60.1925 57.8541 60.2597 57.8865 60.3237 57.9239C60.6121 58.0678 60.9018 58.1787 61.1927 58.256C61.4837 58.3334 61.7917 58.372 62.1176 58.372C62.2082 58.372 62.3058 58.3682 62.4098 58.36C62.5137 58.3517 62.6088 58.3321 62.6937 58.2998C62.7793 58.2674 62.8497 58.2186 62.9061 58.1514C62.9619 58.0849 62.9904 57.9898 62.9904 57.8656C62.9904 57.8066 62.9746 57.7546 62.9422 57.7096C62.9099 57.664 62.87 57.6241 62.8218 57.5892C62.7736 57.5543 62.7229 57.5239 62.6697 57.4973C62.6164 57.4707 62.5657 57.4491 62.5175 57.4333C62.4053 57.3908 62.2906 57.3585 62.1733 57.3369C62.0561 57.3154 61.9382 57.2913 61.8209 57.2646C61.6662 57.2272 61.5141 57.1924 61.3645 57.1607C61.2149 57.1284 61.071 57.0897 60.9322 57.0472C60.7883 57.0048 60.6508 56.9579 60.5196 56.9071C60.389 56.8564 60.2673 56.7962 60.1551 56.7271C59.9256 56.5883 59.7424 56.4026 59.6068 56.1693C59.4705 55.9373 59.4027 55.6286 59.4027 55.2432C59.4027 55.1095 59.4173 54.9751 59.4464 54.8388C59.4756 54.7025 59.5199 54.5732 59.5783 54.449C59.6955 54.2037 59.8477 54.0008 60.0347 53.8405C60.2216 53.6801 60.4283 53.5533 60.6552 53.4627C60.8821 53.372 61.1211 53.308 61.3721 53.2706C61.6231 53.2332 61.8742 53.2148 62.1245 53.2148C62.5359 53.2148 62.9416 53.2643 63.3416 53.3644C63.7422 53.4633 64.1238 53.6262 64.487 53.8519C64.3532 54.0775 64.2239 54.2975 64.0984 54.5149C63.9729 54.7323 63.8461 54.9529 63.7181 55.1767C63.4081 55.0271 63.1083 54.9047 62.8174 54.8084C62.5264 54.712 62.2126 54.6645 61.8767 54.6645C61.7968 54.6645 61.7125 54.6683 61.6244 54.6765C61.5363 54.6848 61.4552 54.7044 61.3804 54.7368C61.3056 54.7691 61.2441 54.8154 61.1959 54.8769C61.1477 54.9383 61.1236 55.0195 61.1236 55.1196C61.1236 55.1944 61.1395 55.2584 61.1718 55.3117C61.2092 55.3706 61.277 55.4226 61.3759 55.4676C61.4748 55.5133 61.5959 55.5545 61.7404 55.5919C61.8843 55.6293 62.0421 55.6654 62.2126 55.7003C62.3832 55.7351 62.5625 55.7763 62.7489 55.8245C62.9302 55.8727 63.1134 55.9272 63.2972 55.9874C63.4817 56.0489 63.6547 56.1237 63.8176 56.2118C63.9805 56.2999 64.1257 56.4039 64.2537 56.5243C64.3817 56.6447 64.4832 56.7873 64.558 56.9515C64.6169 57.0745 64.6569 57.2063 64.6778 57.3477C64.6993 57.489 64.7101 57.6291 64.7101 57.7667C64.7101 58.1724 64.6271 58.5058 64.4616 58.7663C64.2962 59.0281 64.08 59.2347 63.8132 59.3856C63.5463 59.5377 63.2446 59.6442 62.908 59.7057C62.5714 59.7672 62.2355 59.7976 61.8989 59.7976L61.9014 59.797ZM69.132 59.6049V57.2589H66.9299V59.6049H65.2083V53.3911H66.9299V55.7611H69.132V53.3911H70.8694V59.6049H69.132ZM74.6974 59.797C74.2385 59.797 73.8087 59.7114 73.4081 59.5409C73.0075 59.3704 72.6582 59.1365 72.359 58.8405C72.0598 58.5444 71.824 58.1958 71.6504 57.7952C71.4767 57.3946 71.3898 56.968 71.3898 56.5141C71.3898 56.0603 71.4767 55.6331 71.6504 55.2331C71.824 54.8325 72.0598 54.4845 72.359 54.1878C72.6582 53.8918 73.0075 53.6567 73.4081 53.483C73.8087 53.3093 74.2385 53.2224 74.6974 53.2224C75.1563 53.2224 75.5797 53.3093 75.9829 53.483C76.386 53.6567 76.7372 53.8912 77.0357 54.1878C77.3349 54.4839 77.5707 54.8325 77.7444 55.2331C77.9181 55.6337 78.0049 56.0603 78.0049 56.5141C78.0049 56.968 77.9181 57.3952 77.7444 57.7952C77.5707 58.1958 77.3349 58.5438 77.0357 58.8405C76.7365 59.1365 76.386 59.3704 75.9829 59.5409C75.5797 59.7114 75.1512 59.797 74.6974 59.797ZM74.6974 54.8084C74.4622 54.8084 74.2448 54.8553 74.0445 54.9485C73.8442 55.0417 73.6724 55.1659 73.5279 55.3206C73.384 55.4752 73.2705 55.6553 73.1875 55.8613C73.1045 56.0666 73.0633 56.284 73.0633 56.5141C73.0633 56.7442 73.1045 56.9547 73.1875 57.1626C73.2705 57.3705 73.3834 57.5524 73.5279 57.7071C73.6718 57.8618 73.8442 57.986 74.0445 58.0792C74.2448 58.1724 74.4622 58.2193 74.6974 58.2193C74.9325 58.2193 75.15 58.1724 75.3503 58.0792C75.5506 57.986 75.7224 57.8618 75.8669 57.7071C76.0108 57.5524 76.1242 57.3705 76.2073 57.1626C76.2897 56.9547 76.3315 56.7379 76.3315 56.5141C76.3315 56.2904 76.2903 56.0673 76.2073 55.8613C76.1242 55.6559 76.0108 55.4752 75.8669 55.3206C75.723 55.1659 75.5506 55.0417 75.3503 54.9485C75.15 54.8553 74.9325 54.8084 74.6974 54.8084ZM81.7118 57.6754H80.5829V59.6049H78.9171V53.3911H81.7118C82.011 53.3911 82.2975 53.4418 82.5726 53.5432C82.8477 53.6446 83.0905 53.786 83.3016 53.9679C83.5126 54.1492 83.6806 54.3685 83.8061 54.6246C83.9316 54.8807 83.9944 55.1608 83.9944 55.4651C83.9944 55.7693 83.9316 56.0628 83.8061 56.3297C83.6806 56.5965 83.5126 56.8298 83.3016 57.0301C83.0905 57.2304 82.8477 57.3876 82.5726 57.5023C82.2975 57.6171 82.011 57.6748 81.7118 57.6748V57.6754ZM81.592 54.7767H80.6228V56.1142H81.592C81.6884 56.1142 81.779 56.0971 81.8639 56.0622C81.9495 56.0273 82.0243 55.9811 82.0883 55.9196C82.1523 55.8581 82.2031 55.7877 82.2405 55.7085C82.2779 55.6286 82.2962 55.5418 82.2962 55.4454C82.2962 55.3491 82.2779 55.2629 82.2405 55.1824C82.2031 55.1038 82.1523 55.0328 82.0883 54.9713C82.0243 54.9098 81.9495 54.8635 81.8639 54.8287C81.7784 54.7938 81.6877 54.7767 81.592 54.7767Z" fill="white"/>
<path d="M86.8607 55.4474H103.97V57.3725H86.8607V55.4474Z" fill="white"/>
<path d="M75.2146 30.14C74.845 30.14 74.5585 29.8655 74.5737 29.4732C74.5877 29.115 74.8634 28.8608 75.2171 28.8608C75.6038 28.8608 75.896 29.1828 75.858 29.5277C75.858 29.8681 75.5702 30.14 75.2146 30.14ZM71.5667 29.7121C72.8826 30.398 74.2796 31.2429 75.8244 31.0426C76.4316 31.0141 76.9742 30.5824 77.1675 30.0113C77.4433 29.3451 76.8633 28.7093 76.36 28.3423C75.413 27.7332 74.3513 27.3307 73.3535 26.8147C72.7571 27.7801 72.1897 28.7626 71.5667 29.7121Z" fill="white"/>
</svg>
